<?xml version="1.0" encoding="us-ascii" standalone="no"?><svg xmlns="http://www.w3.org/2000/svg" xmlns:xlink="http://www.w3.org/1999/xlink" contentStyleType="text/css" height="773px" preserveAspectRatio="none" style="width:846px;height:773px;background:#FFFFFF;" version="1.1" viewBox="0 0 846 773" width="846px" zoomAndPan="magnify"><defs/><g><!--class MainService--><g id="elem_MainService"><rect codeLine="8" fill="#F1F1F1" height="96.8906" id="MainService" rx="2.5" ry="2.5" style="stroke:#181818;stroke-width:0.5;" width="218" x="51.5" y="165"/><ellipse cx="115.25" cy="181" fill="#ADD1B2" rx="11" ry="11" style="stroke:#181818;stroke-width:1.0;"/><path d="M118.2188,186.6406 Q117.6406,186.9375 117,187.0781 Q116.3594,187.2344 115.6563,187.2344 Q113.1563,187.2344 111.8281,185.5938 Q110.5156,183.9375 110.5156,180.8125 Q110.5156,177.6875 111.8281,176.0313 Q113.1563,174.375 115.6563,174.375 Q116.3594,174.375 117,174.5313 Q117.6563,174.6875 118.2188,174.9844 L118.2188,177.7031 Q117.5938,177.125 117,176.8594 Q116.4063,176.5781 115.7813,176.5781 Q114.4375,176.5781 113.75,177.6563 Q113.0625,178.7188 113.0625,180.8125 Q113.0625,182.9063 113.75,183.9844 Q114.4375,185.0469 115.7813,185.0469 Q116.4063,185.0469 117,184.7813 Q117.5938,184.5 118.2188,183.9219 L118.2188,186.6406 Z " fill="#000000"/><text fill="#000000" font-family="sans-serif" font-size="14" lengthAdjust="spacing" textLength="82" x="135.75" y="185.8467">MainService</text><line style="stroke:#181818;stroke-width:0.5;" x1="52.5" x2="268.5" y1="197" y2="197"/><text fill="#000000" font-family="sans-serif" font-size="14" lengthAdjust="spacing" textLength="96" x="57.5" y="213.9951">"+ id: int [PK]"</text><text fill="#000000" font-family="sans-serif" font-size="14" lengthAdjust="spacing" textLength="206" x="57.5" y="230.292">"+ attribute" username: string</text><text fill="#000000" font-family="sans-serif" font-size="14" lengthAdjust="spacing" textLength="203" x="57.5" y="246.5889">"+ attribute" password: string</text><line style="stroke:#181818;stroke-width:0.5;" x1="52.5" x2="268.5" y1="253.8906" y2="253.8906"/></g><!--class StatisticsService--><g id="elem_StatisticsService"><rect codeLine="14" fill="#F1F1F1" height="96.8906" id="StatisticsService" rx="2.5" ry="2.5" style="stroke:#181818;stroke-width:0.5;" width="164" x="120.5" y="488"/><ellipse cx="144.5" cy="504" fill="#ADD1B2" rx="11" ry="11" style="stroke:#181818;stroke-width:1.0;"/><path d="M147.4688,509.6406 Q146.8906,509.9375 146.25,510.0781 Q145.6094,510.2344 144.9063,510.2344 Q142.4063,510.2344 141.0781,508.5938 Q139.7656,506.9375 139.7656,503.8125 Q139.7656,500.6875 141.0781,499.0313 Q142.4063,497.375 144.9063,497.375 Q145.6094,497.375 146.25,497.5313 Q146.9063,497.6875 147.4688,497.9844 L147.4688,500.7031 Q146.8438,500.125 146.25,499.8594 Q145.6563,499.5781 145.0313,499.5781 Q143.6875,499.5781 143,500.6563 Q142.3125,501.7188 142.3125,503.8125 Q142.3125,505.9063 143,506.9844 Q143.6875,508.0469 145.0313,508.0469 Q145.6563,508.0469 146.25,507.7813 Q146.8438,507.5 147.4688,506.9219 L147.4688,509.6406 Z " fill="#000000"/><text fill="#000000" font-family="sans-serif" font-size="14" lengthAdjust="spacing" textLength="112" x="160.5" y="508.8467">StatisticsService</text><line style="stroke:#181818;stroke-width:0.5;" x1="121.5" x2="283.5" y1="520" y2="520"/><text fill="#000000" font-family="sans-serif" font-size="14" lengthAdjust="spacing" textLength="96" x="126.5" y="536.9951">"+ id: int [PK]"</text><text fill="#000000" font-family="sans-serif" font-size="14" lengthAdjust="spacing" textLength="145" x="126.5" y="553.292">"+ attribute" likes: int</text><text fill="#000000" font-family="sans-serif" font-size="14" lengthAdjust="spacing" textLength="152" x="126.5" y="569.5889">"+ attribute" views: int</text><line style="stroke:#181818;stroke-width:0.5;" x1="121.5" x2="283.5" y1="576.8906" y2="576.8906"/></g><!--class PostsService--><g id="elem_PostsService"><rect codeLine="20" fill="#F1F1F1" height="113.1875" id="PostsService" rx="2.5" ry="2.5" style="stroke:#181818;stroke-width:0.5;" width="202" x="382.5" y="480"/><ellipse cx="434.75" cy="496" fill="#ADD1B2" rx="11" ry="11" style="stroke:#181818;stroke-width:1.0;"/><path d="M437.7188,501.6406 Q437.1406,501.9375 436.5,502.0781 Q435.8594,502.2344 435.1563,502.2344 Q432.6563,502.2344 431.3281,500.5938 Q430.0156,498.9375 430.0156,495.8125 Q430.0156,492.6875 431.3281,491.0313 Q432.6563,489.375 435.1563,489.375 Q435.8594,489.375 436.5,489.5313 Q437.1563,489.6875 437.7188,489.9844 L437.7188,492.7031 Q437.0938,492.125 436.5,491.8594 Q435.9063,491.5781 435.2813,491.5781 Q433.9375,491.5781 433.25,492.6563 Q432.5625,493.7188 432.5625,495.8125 Q432.5625,497.9063 433.25,498.9844 Q433.9375,500.0469 435.2813,500.0469 Q435.9063,500.0469 436.5,499.7813 Q437.0938,499.5 437.7188,498.9219 L437.7188,501.6406 Z " fill="#000000"/><text fill="#000000" font-family="sans-serif" font-size="14" lengthAdjust="spacing" textLength="89" x="455.25" y="500.8467">PostsService</text><line style="stroke:#181818;stroke-width:0.5;" x1="383.5" x2="583.5" y1="512" y2="512"/><text fill="#000000" font-family="sans-serif" font-size="14" lengthAdjust="spacing" textLength="96" x="388.5" y="528.9951">"+ id: int [PK]"</text><text fill="#000000" font-family="sans-serif" font-size="14" lengthAdjust="spacing" textLength="161" x="388.5" y="545.292">"+ attribute" title: string</text><text fill="#000000" font-family="sans-serif" font-size="14" lengthAdjust="spacing" textLength="190" x="388.5" y="561.5889">"+ attribute" content: string</text><text fill="#000000" font-family="sans-serif" font-size="14" lengthAdjust="spacing" textLength="133" x="388.5" y="577.8857">"+ user_id: int [FK]"</text><line style="stroke:#181818;stroke-width:0.5;" x1="383.5" x2="583.5" y1="585.1875" y2="585.1875"/></g><!--class Comment--><g id="elem_Comment"><rect codeLine="27" fill="#F1F1F1" height="96.8906" id="Comment" rx="2.5" ry="2.5" style="stroke:#181818;stroke-width:0.5;" width="202" x="572.5" y="670"/><ellipse cx="635.25" cy="686" fill="#ADD1B2" rx="11" ry="11" style="stroke:#181818;stroke-width:1.0;"/><path d="M638.2188,691.6406 Q637.6406,691.9375 637,692.0781 Q636.3594,692.2344 635.6563,692.2344 Q633.1563,692.2344 631.8281,690.5938 Q630.5156,688.9375 630.5156,685.8125 Q630.5156,682.6875 631.8281,681.0313 Q633.1563,679.375 635.6563,679.375 Q636.3594,679.375 637,679.5313 Q637.6563,679.6875 638.2188,679.9844 L638.2188,682.7031 Q637.5938,682.125 637,681.8594 Q636.4063,681.5781 635.7813,681.5781 Q634.4375,681.5781 633.75,682.6563 Q633.0625,683.7188 633.0625,685.8125 Q633.0625,687.9063 633.75,688.9844 Q634.4375,690.0469 635.7813,690.0469 Q636.4063,690.0469 637,689.7813 Q637.5938,689.5 638.2188,688.9219 L638.2188,691.6406 Z " fill="#000000"/><text fill="#000000" font-family="sans-serif" font-size="14" lengthAdjust="spacing" textLength="68" x="655.75" y="690.8467">Comment</text><line style="stroke:#181818;stroke-width:0.5;" x1="573.5" x2="773.5" y1="702" y2="702"/><text fill="#000000" font-family="sans-serif" font-size="14" lengthAdjust="spacing" textLength="96" x="578.5" y="718.9951">"+ id: int [PK]"</text><text fill="#000000" font-family="sans-serif" font-size="14" lengthAdjust="spacing" textLength="190" x="578.5" y="735.292">"+ attribute" content: string</text><text fill="#000000" font-family="sans-serif" font-size="14" lengthAdjust="spacing" textLength="133" x="578.5" y="751.5889">"+ user_id: int [FK]"</text><line style="stroke:#181818;stroke-width:0.5;" x1="573.5" x2="773.5" y1="758.8906" y2="758.8906"/></g><!--class User--><g id="elem_User"><rect codeLine="33" fill="#F1F1F1" height="80.5938" id="User" rx="2.5" ry="2.5" style="stroke:#181818;stroke-width:0.5;" width="218" x="303.5" y="7"/><ellipse cx="392.25" cy="23" fill="#ADD1B2" rx="11" ry="11" style="stroke:#181818;stroke-width:1.0;"/><path d="M395.2188,28.6406 Q394.6406,28.9375 394,29.0781 Q393.3594,29.2344 392.6563,29.2344 Q390.1563,29.2344 388.8281,27.5938 Q387.5156,25.9375 387.5156,22.8125 Q387.5156,19.6875 388.8281,18.0313 Q390.1563,16.375 392.6563,16.375 Q393.3594,16.375 394,16.5313 Q394.6563,16.6875 395.2188,16.9844 L395.2188,19.7031 Q394.5938,19.125 394,18.8594 Q393.4063,18.5781 392.7813,18.5781 Q391.4375,18.5781 390.75,19.6563 Q390.0625,20.7188 390.0625,22.8125 Q390.0625,24.9063 390.75,25.9844 Q391.4375,27.0469 392.7813,27.0469 Q393.4063,27.0469 394,26.7813 Q394.5938,26.5 395.2188,25.9219 L395.2188,28.6406 Z " fill="#000000"/><text fill="#000000" font-family="sans-serif" font-size="14" lengthAdjust="spacing" textLength="32" x="412.75" y="27.8467">User</text><line style="stroke:#181818;stroke-width:0.5;" x1="304.5" x2="520.5" y1="39" y2="39"/><text fill="#000000" font-family="sans-serif" font-size="14" lengthAdjust="spacing" textLength="96" x="309.5" y="55.9951">"+ id: int [PK]"</text><text fill="#000000" font-family="sans-serif" font-size="14" lengthAdjust="spacing" textLength="206" x="309.5" y="72.292">"+ attribute" username: string</text><line style="stroke:#181818;stroke-width:0.5;" x1="304.5" x2="520.5" y1="79.5938" y2="79.5938"/></g><!--class StatisticsDB--><g id="elem_StatisticsDB"><rect codeLine="38" fill="#F1F1F1" height="64.2969" id="StatisticsDB" rx="2.5" ry="2.5" style="stroke:#181818;stroke-width:0.5;" width="115" x="145" y="686.5"/><ellipse cx="160" cy="702.5" fill="#ADD1B2" rx="11" ry="11" style="stroke:#181818;stroke-width:1.0;"/><path d="M162.9688,708.1406 Q162.3906,708.4375 161.75,708.5781 Q161.1094,708.7344 160.4063,708.7344 Q157.9063,708.7344 156.5781,707.0938 Q155.2656,705.4375 155.2656,702.3125 Q155.2656,699.1875 156.5781,697.5313 Q157.9063,695.875 160.4063,695.875 Q161.1094,695.875 161.75,696.0313 Q162.4063,696.1875 162.9688,696.4844 L162.9688,699.2031 Q162.3438,698.625 161.75,698.3594 Q161.1563,698.0781 160.5313,698.0781 Q159.1875,698.0781 158.5,699.1563 Q157.8125,700.2188 157.8125,702.3125 Q157.8125,704.4063 158.5,705.4844 Q159.1875,706.5469 160.5313,706.5469 Q161.1563,706.5469 161.75,706.2813 Q162.3438,706 162.9688,705.4219 L162.9688,708.1406 Z " fill="#000000"/><text fill="#000000" font-family="sans-serif" font-size="14" lengthAdjust="spacing" textLength="83" x="174" y="707.3467">StatisticsDB</text><line style="stroke:#181818;stroke-width:0.5;" x1="146" x2="259" y1="718.5" y2="718.5"/><text fill="#000000" font-family="sans-serif" font-size="14" lengthAdjust="spacing" textLength="77" x="151" y="735.4951">ClickHouse</text><line style="stroke:#181818;stroke-width:0.5;" x1="146" x2="259" y1="742.7969" y2="742.7969"/></g><!--class MainDB--><g id="elem_MainDB"><rect codeLine="42" fill="#F1F1F1" height="64.2969" id="MainDB" rx="2.5" ry="2.5" style="stroke:#181818;stroke-width:0.5;" width="93" x="7" y="339"/><ellipse cx="25.6" cy="355" fill="#ADD1B2" rx="11" ry="11" style="stroke:#181818;stroke-width:1.0;"/><path d="M28.5688,360.6406 Q27.9906,360.9375 27.35,361.0781 Q26.7094,361.2344 26.0063,361.2344 Q23.5063,361.2344 22.1781,359.5938 Q20.8656,357.9375 20.8656,354.8125 Q20.8656,351.6875 22.1781,350.0313 Q23.5063,348.375 26.0063,348.375 Q26.7094,348.375 27.35,348.5313 Q28.0063,348.6875 28.5688,348.9844 L28.5688,351.7031 Q27.9438,351.125 27.35,350.8594 Q26.7563,350.5781 26.1313,350.5781 Q24.7875,350.5781 24.1,351.6563 Q23.4125,352.7188 23.4125,354.8125 Q23.4125,356.9063 24.1,357.9844 Q24.7875,359.0469 26.1313,359.0469 Q26.7563,359.0469 27.35,358.7813 Q27.9438,358.5 28.5688,357.9219 L28.5688,360.6406 Z " fill="#000000"/><text fill="#000000" font-family="sans-serif" font-size="14" lengthAdjust="spacing" textLength="53" x="40.4" y="359.8467">MainDB</text><line style="stroke:#181818;stroke-width:0.5;" x1="8" x2="99" y1="371" y2="371"/><text fill="#000000" font-family="sans-serif" font-size="14" lengthAdjust="spacing" textLength="81" x="13" y="387.9951">PostgreSQL</text><line style="stroke:#181818;stroke-width:0.5;" x1="8" x2="99" y1="395.2969" y2="395.2969"/></g><!--class PostsDB--><g id="elem_PostsDB"><rect codeLine="46" fill="#F1F1F1" height="64.2969" id="PostsDB" rx="2.5" ry="2.5" style="stroke:#181818;stroke-width:0.5;" width="93" x="437" y="686.5"/><ellipse cx="452.45" cy="702.5" fill="#ADD1B2" rx="11" ry="11" style="stroke:#181818;stroke-width:1.0;"/><path d="M455.4188,708.1406 Q454.8406,708.4375 454.2,708.5781 Q453.5594,708.7344 452.8563,708.7344 Q450.3563,708.7344 449.0281,707.0938 Q447.7156,705.4375 447.7156,702.3125 Q447.7156,699.1875 449.0281,697.5313 Q450.3563,695.875 452.8563,695.875 Q453.5594,695.875 454.2,696.0313 Q454.8563,696.1875 455.4188,696.4844 L455.4188,699.2031 Q454.7938,698.625 454.2,698.3594 Q453.6063,698.0781 452.9813,698.0781 Q451.6375,698.0781 450.95,699.1563 Q450.2625,700.2188 450.2625,702.3125 Q450.2625,704.4063 450.95,705.4844 Q451.6375,706.5469 452.9813,706.5469 Q453.6063,706.5469 454.2,706.2813 Q454.7938,706 455.4188,705.4219 L455.4188,708.1406 Z " fill="#000000"/><text fill="#000000" font-family="sans-serif" font-size="14" lengthAdjust="spacing" textLength="60" x="466.55" y="707.3467">PostsDB</text><line style="stroke:#181818;stroke-width:0.5;" x1="438" x2="529" y1="718.5" y2="718.5"/><text fill="#000000" font-family="sans-serif" font-size="14" lengthAdjust="spacing" textLength="81" x="443" y="735.4951">PostgreSQL</text><line style="stroke:#181818;stroke-width:0.5;" x1="438" x2="529" y1="742.7969" y2="742.7969"/></g><!--class Kafka--><g id="elem_Kafka"><rect codeLine="50" fill="#F1F1F1" height="64.2969" id="Kafka" rx="2.5" ry="2.5" style="stroke:#181818;stroke-width:0.5;" width="105" x="224" y="339"/><ellipse cx="255.2" cy="355" fill="#ADD1B2" rx="11" ry="11" style="stroke:#181818;stroke-width:1.0;"/><path d="M258.1688,360.6406 Q257.5906,360.9375 256.95,361.0781 Q256.3094,361.2344 255.6063,361.2344 Q253.1063,361.2344 251.7781,359.5938 Q250.4656,357.9375 250.4656,354.8125 Q250.4656,351.6875 251.7781,350.0313 Q253.1063,348.375 255.6063,348.375 Q256.3094,348.375 256.95,348.5313 Q257.6063,348.6875 258.1688,348.9844 L258.1688,351.7031 Q257.5438,351.125 256.95,350.8594 Q256.3563,350.5781 255.7313,350.5781 Q254.3875,350.5781 253.7,351.6563 Q253.0125,352.7188 253.0125,354.8125 Q253.0125,356.9063 253.7,357.9844 Q254.3875,359.0469 255.7313,359.0469 Q256.3563,359.0469 256.95,358.7813 Q257.5438,358.5 258.1688,357.9219 L258.1688,360.6406 Z " fill="#000000"/><text fill="#000000" font-family="sans-serif" font-size="14" lengthAdjust="spacing" textLength="37" x="272.8" y="359.8467">Kafka</text><line style="stroke:#181818;stroke-width:0.5;" x1="225" x2="328" y1="371" y2="371"/><text fill="#000000" font-family="sans-serif" font-size="14" lengthAdjust="spacing" textLength="93" x="230" y="387.9951">Apache Kafka</text><line style="stroke:#181818;stroke-width:0.5;" x1="225" x2="328" y1="395.2969" y2="395.2969"/></g><!--link User to MainService--><g id="link_User_MainService"><path codeLine="54" d="M303.22,64.81 C242.6,76.34 175.81,94.03 157.5,118 C149.17,128.9 146.6,142.76 146.92,156.48 " fill="none" id="User-to-MainService" style="stroke:#181818;stroke-width:1.0;"/><line style="stroke:#181818;stroke-width:1.0;" x1="146.9234" x2="153.3989" y1="156.5348" y2="164.1551"/><line style="stroke:#181818;stroke-width:1.0;" x1="146.9234" x2="141.4211" y1="156.5348" y2="164.8849"/><line style="stroke:#181818;stroke-width:1.0;" x1="146.9234" x2="147.41" y1="156.5348" y2="164.52"/><line style="stroke:#181818;stroke-width:1.0;" x1="150.7944" x2="142.8092" y1="154.2952" y2="154.7818"/><text fill="#000000" font-family="sans-serif" font-size="13" lengthAdjust="spacing" textLength="156" x="158.5" y="131.0669">Registers, Authenticates</text></g><!--link User to PostsService--><g id="link_User_PostsService"><path codeLine="55" d="M433.1,88.08 C443.55,110.11 455.31,138.39 461.5,165 C474.64,221.45 480.18,381.5 482.31,471.69 " fill="none" id="User-to-PostsService" style="stroke:#181818;stroke-width:1.0;"/><line style="stroke:#181818;stroke-width:1.0;" x1="482.3143" x2="488.4984" y1="471.9222" y2="479.7808"/><line style="stroke:#181818;stroke-width:1.0;" x1="482.3143" x2="476.5016" y1="471.9222" y2="480.0592"/><line style="stroke:#181818;stroke-width:1.0;" x1="482.3143" x2="482.5" y1="471.9222" y2="479.92"/><line style="stroke:#181818;stroke-width:1.0;" x1="486.2668" x2="478.269" y1="469.8299" y2="470.0155"/><text fill="#000000" font-family="sans-serif" font-size="13" lengthAdjust="spacing" textLength="209" x="477.5" y="305.0669">Creates, Updates, Deletes Tasks</text></g><!--link User to Comment--><g id="link_User_Comment"><path codeLine="56" d="M521.75,62.29 C609.27,80.17 717.5,120.82 717.5,212.5 C717.5,212.5 717.5,212.5 717.5,537.5 C717.5,580.12 705.72,626.83 694.35,661.99 " fill="none" id="User-to-Comment" style="stroke:#181818;stroke-width:1.0;"/><line style="stroke:#181818;stroke-width:1.0;" x1="694.2798" x2="697.4796" y1="662.1606" y2="671.6349"/><line style="stroke:#181818;stroke-width:1.0;" x1="694.2798" x2="686.0804" y1="662.1606" y2="667.8851"/><line style="stroke:#181818;stroke-width:1.0;" x1="694.2798" x2="691.78" y1="662.1606" y2="669.76"/><line style="stroke:#181818;stroke-width:1.0;" x1="698.7045" x2="691.1051" y1="661.5106" y2="659.0108"/><text fill="#000000" font-family="sans-serif" font-size="13" lengthAdjust="spacing" textLength="120" x="718.5" y="375.5669">Leaves Comments</text></g><!--link User to Kafka--><g id="link_User_Kafka"><path codeLine="57" d="M397.21,88.01 C388.59,110.51 377.74,139.26 368.5,165 C345.67,228.63 350.18,248.76 319.5,309 C315.54,316.78 310.68,324.69 305.68,332.12 " fill="none" id="User-to-Kafka" style="stroke:#181818;stroke-width:1.0;"/><line style="stroke:#181818;stroke-width:1.0;" x1="305.6222" x2="306.0039" y1="332.2214" y2="342.2141"/><line style="stroke:#181818;stroke-width:1.0;" x1="305.6222" x2="296.1361" y1="332.2214" y2="335.3859"/><line style="stroke:#181818;stroke-width:1.0;" x1="305.6222" x2="301.07" y1="332.2214" y2="338.8"/><line style="stroke:#181818;stroke-width:1.0;" x1="310.0495" x2="303.471" y1="332.8529" y2="328.3007"/><text fill="#000000" font-family="sans-serif" font-size="13" lengthAdjust="spacing" textLength="87" x="369.5" y="218.0669">Sends Events</text></g><!--link Kafka to StatisticsService--><g id="link_Kafka_StatisticsService"><path codeLine="58" d="M223.81,403.09 C213.98,411.48 205.07,421.48 199.5,433 C192.6,447.26 190.86,463.99 191.53,479.76 " fill="none" id="Kafka-to-StatisticsService" style="stroke:#181818;stroke-width:1.0;"/><line style="stroke:#181818;stroke-width:1.0;" x1="191.5365" x2="198.0661" y1="479.9085" y2="487.4823"/><line style="stroke:#181818;stroke-width:1.0;" x1="191.5365" x2="186.0939" y1="479.9085" y2="488.2977"/><line style="stroke:#181818;stroke-width:1.0;" x1="191.5365" x2="192.08" y1="479.9085" y2="487.89"/><ellipse cx="191.1288" cy="473.9224" fill="none" rx="4" ry="4" style="stroke:#181818;stroke-width:1.0;"/><text fill="#000000" font-family="sans-serif" font-size="13" lengthAdjust="spacing" textLength="107" x="200.5" y="446.0669">Publishes Events</text></g><!--link MainService to Kafka--><g id="link_MainService_Kafka"><path codeLine="60" d="M179.85,262.26 C187.32,277.91 196.68,294.9 207.5,309 C214.01,317.49 221.84,325.72 229.84,333.23 " fill="none" id="MainService-to-Kafka" style="stroke:#181818;stroke-width:1.0;"/><line style="stroke:#181818;stroke-width:1.0;" x1="230.0786" x2="240.0309" y1="333.4287" y2="334.404"/><line style="stroke:#181818;stroke-width:1.0;" x1="230.0786" x2="231.9291" y1="333.4287" y2="343.256"/><line style="stroke:#181818;stroke-width:1.0;" x1="230.0786" x2="235.98" y1="333.4287" y2="338.83"/><ellipse cx="225.6526" cy="329.3778" fill="none" rx="4" ry="4" style="stroke:#181818;stroke-width:1.0;"/><text fill="#000000" font-family="sans-serif" font-size="13" lengthAdjust="spacing" textLength="106" x="208.5" y="305.0669">Produces Events</text></g><!--link Kafka to PostsService--><g id="link_Kafka_PostsService"><path codeLine="61" d="M301.82,403.04 C314.91,418.11 331.66,435.96 348.5,450 C358.92,458.69 370.29,467.18 381.85,475.22 " fill="none" id="Kafka-to-PostsService" style="stroke:#181818;stroke-width:1.0;"/><line style="stroke:#181818;stroke-width:1.0;" x1="382.0881" x2="392.0796" y1="475.3772" y2="474.9661"/><line style="stroke:#181818;stroke-width:1.0;" x1="382.0881" x2="385.2804" y1="475.3772" y2="484.8539"/><line style="stroke:#181818;stroke-width:1.0;" x1="382.0881" x2="388.68" y1="475.3772" y2="479.91"/><ellipse cx="377.1441" cy="471.9775" fill="none" rx="4" ry="4" style="stroke:#181818;stroke-width:1.0;"/><text fill="#000000" font-family="sans-serif" font-size="13" lengthAdjust="spacing" textLength="107" x="349.5" y="446.0669">Publishes Events</text></g><!--link PostsService to Comment--><g id="link_PostsService_Comment"><path codeLine="63" d="M573.76,593.23 C586.02,602.48 597.98,612.51 608.5,623 C620.37,634.84 631.47,649.12 641.01,662.95 " fill="none" id="PostsService-to-Comment" style="stroke:#181818;stroke-width:1.0;"/><line style="stroke:#181818;stroke-width:1.0;" x1="641.0962" x2="650.5441" y1="663.0579" y2="666.3346"/><line style="stroke:#181818;stroke-width:1.0;" x1="641.0962" x2="640.5959" y1="663.0579" y2="673.0454"/><line style="stroke:#181818;stroke-width:1.0;" x1="641.0962" x2="645.57" y1="663.0579" y2="669.69"/><ellipse cx="637.7408" cy="658.0838" fill="none" rx="4" ry="4" style="stroke:#181818;stroke-width:1.0;"/><text fill="#000000" font-family="sans-serif" font-size="13" lengthAdjust="spacing" textLength="25" x="623.5" y="636.0669">Has</text></g><!--link MainService to MainDB--><g id="link_MainService_MainDB"><path codeLine="65" d="M73.97,262.19 C64.56,270.88 56.31,280.8 50.5,292 C44.46,303.64 43.42,317.63 44.45,330.53 " fill="none" id="MainService-to-MainDB" style="stroke:#181818;stroke-width:1.0;"/><line style="stroke:#181818;stroke-width:1.0;" x1="44.4952" x2="51.3706" y1="330.8625" y2="338.1239"/><line style="stroke:#181818;stroke-width:1.0;" x1="44.4952" x2="39.4494" y1="330.8625" y2="339.4961"/><line style="stroke:#181818;stroke-width:1.0;" x1="44.4952" x2="45.41" y1="330.8625" y2="338.81"/><ellipse cx="43.8091" cy="324.9018" fill="none" rx="4" ry="4" style="stroke:#181818;stroke-width:1.0;"/><text fill="#000000" font-family="sans-serif" font-size="13" lengthAdjust="spacing" textLength="115" x="51.5" y="305.0669">Reads/Writes data</text></g><!--link StatisticsService to StatisticsDB--><g id="link_StatisticsService_StatisticsDB"><path codeLine="66" d="M202.5,585.26 C202.5,614.24 202.5,650.77 202.5,678.09 " fill="none" id="StatisticsService-to-StatisticsDB" style="stroke:#181818;stroke-width:1.0;"/><line style="stroke:#181818;stroke-width:1.0;" x1="202.5" x2="208.5" y1="678.26" y2="686.26"/><line style="stroke:#181818;stroke-width:1.0;" x1="202.5" x2="196.5" y1="678.26" y2="686.26"/><line style="stroke:#181818;stroke-width:1.0;" x1="202.5" x2="202.5" y1="678.26" y2="686.26"/><ellipse cx="202.5" cy="672.26" fill="none" rx="4" ry="4" style="stroke:#181818;stroke-width:1.0;"/><text fill="#000000" font-family="sans-serif" font-size="13" lengthAdjust="spacing" textLength="115" x="203.5" y="636.0669">Reads/Writes data</text></g><!--link PostsService to PostsDB--><g id="link_PostsService_PostsDB"><path codeLine="67" d="M483.5,593.47 C483.5,621 483.5,653.53 483.5,678.36 " fill="none" id="PostsService-to-PostsDB" style="stroke:#181818;stroke-width:1.0;"/><line style="stroke:#181818;stroke-width:1.0;" x1="483.5" x2="489.5" y1="678.47" y2="686.47"/><line style="stroke:#181818;stroke-width:1.0;" x1="483.5" x2="477.5" y1="678.47" y2="686.47"/><line style="stroke:#181818;stroke-width:1.0;" x1="483.5" x2="483.5" y1="678.47" y2="686.47"/><ellipse cx="483.5" cy="672.47" fill="none" rx="4" ry="4" style="stroke:#181818;stroke-width:1.0;"/><text fill="#000000" font-family="sans-serif" font-size="13" lengthAdjust="spacing" textLength="115" x="484.5" y="636.0669">Reads/Writes data</text></g><!--SRC=[bPBDRi8m48JlUGetrnBrper28X2qIabGLLKLClO2LeA3R2SSQD-zpW-90u7IcxNxpNXtx0SAQyO1kQ_X9Fn09CPIMWzLqPyklOax6o7x4J7QHumhzEbFl-oQy0mYbI2MDUQPs20Cvms8bH9ibIfeWBdhDNq1Qn302T2bWLhLY2-OyG14nWYWeuNg8VNHk2OVXkCTz97K3dpJxkxrbeT4qBhxKzi72Yic5IFoxqjY5e4izctNCmQ7gjuO-ubKTtWgfk8hKvE4A-3AQ9xYDwuP9hkTXcxSS9VDGkVtdtYx0Xmz5mx3c95ed6Y9GUMlMFNpO3O2WhVPULgtW2bUHxXe3_QORA4iv40nkkDy7rjVfO_iEMpqO21a3mrIjTKPC88LIDkGj5v9QuO2SgI75djQ7aOGWpwW4Cke9JqbhrKpm9b6gagBAkVMJ02SIkHc9L2M7ISvTln0JVlfAcPo2ut2ChShXBMrBnAQ4kXqFr-mmxY5529ZjJ7klBjwpo9bJENJks1vI3epR5kN6vqjUbLvEShfOtJplm00]--></g></svg>