<?xml version="1.0" encoding="us-ascii" standalone="no"?><svg xmlns="http://www.w3.org/2000/svg" xmlns:xlink="http://www.w3.org/1999/xlink" contentStyleType="text/css" height="426px" preserveAspectRatio="none" style="width:455px;height:426px;background:#FFFFFF;" version="1.1" viewBox="0 0 455 426" width="455px" zoomAndPan="magnify"><defs/><g><!--class User--><g id="elem_User"><rect codeLine="6" fill="#F1F1F1" height="80.5938" id="User" rx="2.5" ry="2.5" style="stroke:#181818;stroke-width:0.5;" width="218" x="85" y="7"/><ellipse cx="173.75" cy="23" fill="#ADD1B2" rx="11" ry="11" style="stroke:#181818;stroke-width:1.0;"/><path d="M176.7188,28.6406 Q176.1406,28.9375 175.5,29.0781 Q174.8594,29.2344 174.1563,29.2344 Q171.6563,29.2344 170.3281,27.5938 Q169.0156,25.9375 169.0156,22.8125 Q169.0156,19.6875 170.3281,18.0313 Q171.6563,16.375 174.1563,16.375 Q174.8594,16.375 175.5,16.5313 Q176.1563,16.6875 176.7188,16.9844 L176.7188,19.7031 Q176.0938,19.125 175.5,18.8594 Q174.9063,18.5781 174.2813,18.5781 Q172.9375,18.5781 172.25,19.6563 Q171.5625,20.7188 171.5625,22.8125 Q171.5625,24.9063 172.25,25.9844 Q172.9375,27.0469 174.2813,27.0469 Q174.9063,27.0469 175.5,26.7813 Q176.0938,26.5 176.7188,25.9219 L176.7188,28.6406 Z " fill="#000000"/><text fill="#000000" font-family="sans-serif" font-size="14" lengthAdjust="spacing" textLength="32" x="194.25" y="27.8467">User</text><line style="stroke:#181818;stroke-width:0.5;" x1="86" x2="302" y1="39" y2="39"/><text fill="#000000" font-family="sans-serif" font-size="14" lengthAdjust="spacing" textLength="96" x="91" y="55.9951">"+ id: int [PK]"</text><text fill="#000000" font-family="sans-serif" font-size="14" lengthAdjust="spacing" textLength="206" x="91" y="72.292">"+ attribute" username: string</text><line style="stroke:#181818;stroke-width:0.5;" x1="86" x2="302" y1="79.5938" y2="79.5938"/></g><!--class Task--><g id="elem_Task"><rect codeLine="11" fill="#F1F1F1" height="96.8906" id="Task" rx="2.5" ry="2.5" style="stroke:#181818;stroke-width:0.5;" width="225" x="92.5" y="165"/><ellipse cx="184.25" cy="181" fill="#ADD1B2" rx="11" ry="11" style="stroke:#181818;stroke-width:1.0;"/><path d="M187.2188,186.6406 Q186.6406,186.9375 186,187.0781 Q185.3594,187.2344 184.6563,187.2344 Q182.1563,187.2344 180.8281,185.5938 Q179.5156,183.9375 179.5156,180.8125 Q179.5156,177.6875 180.8281,176.0313 Q182.1563,174.375 184.6563,174.375 Q185.3594,174.375 186,174.5313 Q186.6563,174.6875 187.2188,174.9844 L187.2188,177.7031 Q186.5938,177.125 186,176.8594 Q185.4063,176.5781 184.7813,176.5781 Q183.4375,176.5781 182.75,177.6563 Q182.0625,178.7188 182.0625,180.8125 Q182.0625,182.9063 182.75,183.9844 Q183.4375,185.0469 184.7813,185.0469 Q185.4063,185.0469 186,184.7813 Q186.5938,184.5 187.2188,183.9219 L187.2188,186.6406 Z " fill="#000000"/><text fill="#000000" font-family="sans-serif" font-size="14" lengthAdjust="spacing" textLength="33" x="204.75" y="185.8467">Task</text><line style="stroke:#181818;stroke-width:0.5;" x1="93.5" x2="316.5" y1="197" y2="197"/><text fill="#000000" font-family="sans-serif" font-size="14" lengthAdjust="spacing" textLength="96" x="98.5" y="213.9951">"+ id: int [PK]"</text><text fill="#000000" font-family="sans-serif" font-size="14" lengthAdjust="spacing" textLength="161" x="98.5" y="230.292">"+ attribute" title: string</text><text fill="#000000" font-family="sans-serif" font-size="14" lengthAdjust="spacing" textLength="213" x="98.5" y="246.5889">"+ attribute" description: string</text><line style="stroke:#181818;stroke-width:0.5;" x1="93.5" x2="316.5" y1="253.8906" y2="253.8906"/></g><!--class Comment--><g id="elem_Comment"><rect codeLine="17" fill="#F1F1F1" height="80.5938" id="Comment" rx="2.5" ry="2.5" style="stroke:#181818;stroke-width:0.5;" width="202" x="7" y="339"/><ellipse cx="69.75" cy="355" fill="#ADD1B2" rx="11" ry="11" style="stroke:#181818;stroke-width:1.0;"/><path d="M72.7188,360.6406 Q72.1406,360.9375 71.5,361.0781 Q70.8594,361.2344 70.1563,361.2344 Q67.6563,361.2344 66.3281,359.5938 Q65.0156,357.9375 65.0156,354.8125 Q65.0156,351.6875 66.3281,350.0313 Q67.6563,348.375 70.1563,348.375 Q70.8594,348.375 71.5,348.5313 Q72.1563,348.6875 72.7188,348.9844 L72.7188,351.7031 Q72.0938,351.125 71.5,350.8594 Q70.9063,350.5781 70.2813,350.5781 Q68.9375,350.5781 68.25,351.6563 Q67.5625,352.7188 67.5625,354.8125 Q67.5625,356.9063 68.25,357.9844 Q68.9375,359.0469 70.2813,359.0469 Q70.9063,359.0469 71.5,358.7813 Q72.0938,358.5 72.7188,357.9219 L72.7188,360.6406 Z " fill="#000000"/><text fill="#000000" font-family="sans-serif" font-size="14" lengthAdjust="spacing" textLength="68" x="90.25" y="359.8467">Comment</text><line style="stroke:#181818;stroke-width:0.5;" x1="8" x2="208" y1="371" y2="371"/><text fill="#000000" font-family="sans-serif" font-size="14" lengthAdjust="spacing" textLength="96" x="13" y="387.9951">"+ id: int [PK]"</text><text fill="#000000" font-family="sans-serif" font-size="14" lengthAdjust="spacing" textLength="190" x="13" y="404.292">"+ attribute" content: string</text><line style="stroke:#181818;stroke-width:0.5;" x1="8" x2="208" y1="411.5938" y2="411.5938"/></g><!--class Like--><g id="elem_Like"><rect codeLine="22" fill="#F1F1F1" height="80.5938" id="Like" rx="2.5" ry="2.5" style="stroke:#181818;stroke-width:0.5;" width="176" x="272" y="339"/><ellipse cx="342.25" cy="355" fill="#ADD1B2" rx="11" ry="11" style="stroke:#181818;stroke-width:1.0;"/><path d="M345.2188,360.6406 Q344.6406,360.9375 344,361.0781 Q343.3594,361.2344 342.6563,361.2344 Q340.1563,361.2344 338.8281,359.5938 Q337.5156,357.9375 337.5156,354.8125 Q337.5156,351.6875 338.8281,350.0313 Q340.1563,348.375 342.6563,348.375 Q343.3594,348.375 344,348.5313 Q344.6563,348.6875 345.2188,348.9844 L345.2188,351.7031 Q344.5938,351.125 344,350.8594 Q343.4063,350.5781 342.7813,350.5781 Q341.4375,350.5781 340.75,351.6563 Q340.0625,352.7188 340.0625,354.8125 Q340.0625,356.9063 340.75,357.9844 Q341.4375,359.0469 342.7813,359.0469 Q343.4063,359.0469 344,358.7813 Q344.5938,358.5 345.2188,357.9219 L345.2188,360.6406 Z " fill="#000000"/><text fill="#000000" font-family="sans-serif" font-size="14" lengthAdjust="spacing" textLength="27" x="362.75" y="359.8467">Like</text><line style="stroke:#181818;stroke-width:0.5;" x1="273" x2="447" y1="371" y2="371"/><text fill="#000000" font-family="sans-serif" font-size="14" lengthAdjust="spacing" textLength="96" x="278" y="387.9951">"+ id: int [PK]"</text><text fill="#000000" font-family="sans-serif" font-size="14" lengthAdjust="spacing" textLength="164" x="278" y="404.292">"+ attribute" user_id: int</text><line style="stroke:#181818;stroke-width:0.5;" x1="273" x2="447" y1="411.5938" y2="411.5938"/></g><!--link User to Task--><g id="link_User_Task"><path codeLine="27" d="M191.99,88.18 C191.58,97.93 191.21,108.34 191,118 C190.84,125.55 190.33,127.47 191,135 C191.62,141.95 192.55,149.21 193.64,156.38 " fill="none" id="User-to-Task" style="stroke:#181818;stroke-width:1.0;"/><line style="stroke:#181818;stroke-width:1.0;" x1="193.7188" x2="200.9138" y1="156.8316" y2="163.7766"/><line style="stroke:#181818;stroke-width:1.0;" x1="193.7188" x2="189.0662" y1="156.8316" y2="165.6834"/><line style="stroke:#181818;stroke-width:1.0;" x1="193.7188" x2="194.99" y1="156.8316" y2="164.73"/><line style="stroke:#181818;stroke-width:1.0;" x1="197.3502" x2="189.4519" y1="154.2215" y2="155.4926"/><text fill="#000000" font-family="sans-serif" font-size="13" lengthAdjust="spacing" textLength="169" x="192" y="131.0669">Creates, Updates, Deletes</text></g><!--link User to Comment--><g id="link_User_Comment"><path codeLine="28" d="M106.67,88.05 C76.04,106.71 45.05,132.2 28,165 C8.11,203.25 15.22,220.83 28,262 C35.91,287.48 51.53,312.33 66.89,332.49 " fill="none" id="User-to-Comment" style="stroke:#181818;stroke-width:1.0;"/><line style="stroke:#181818;stroke-width:1.0;" x1="66.9296" x2="76.5809" y1="332.5621" y2="335.1797"/><line style="stroke:#181818;stroke-width:1.0;" x1="66.9296" x2="67.1191" y1="332.5621" y2="342.5603"/><line style="stroke:#181818;stroke-width:1.0;" x1="66.9296" x2="71.85" y1="332.5621" y2="338.87"/><line style="stroke:#181818;stroke-width:1.0;" x1="68.8534" x2="62.5455" y1="328.5249" y2="333.4454"/><text fill="#000000" font-family="sans-serif" font-size="13" lengthAdjust="spacing" textLength="45" x="29" y="218.0669">Leaves</text></g><!--link User to Like--><g id="link_User_Like"><path codeLine="29" d="M303,70.46 C327.72,80.74 351.05,95.84 366,118 C408.8,181.45 392.41,274.81 376.37,330.83 " fill="none" id="User-to-Like" style="stroke:#181818;stroke-width:1.0;"/><line style="stroke:#181818;stroke-width:1.0;" x1="376.2812" x2="379.7631" y1="331.1492" y2="340.5234"/><line style="stroke:#181818;stroke-width:1.0;" x1="376.2812" x2="368.2569" y1="331.1492" y2="337.1166"/><line style="stroke:#181818;stroke-width:1.0;" x1="376.2812" x2="374.01" y1="331.1492" y2="338.82"/><line style="stroke:#181818;stroke-width:1.0;" x1="380.6845" x2="373.0137" y1="330.3671" y2="328.0959"/><text fill="#000000" font-family="sans-serif" font-size="13" lengthAdjust="spacing" textLength="32" x="394" y="218.0669">Likes</text></g><!--link Task to Comment--><g id="link_Task_Comment"><path codeLine="31" d="M176.68,262.38 C163.71,284.3 148.4,310.19 135.53,331.95 " fill="none" id="Task-to-Comment" style="stroke:#181818;stroke-width:1.0;"/><line style="stroke:#181818;stroke-width:1.0;" x1="135.5218" x2="136.6147" y1="331.9737" y2="341.9138"/><line style="stroke:#181818;stroke-width:1.0;" x1="135.5218" x2="126.2853" y1="331.9737" y2="335.8062"/><line style="stroke:#181818;stroke-width:1.0;" x1="135.5218" x2="131.45" y1="331.9737" y2="338.86"/><ellipse cx="138.5756" cy="326.809" fill="none" rx="4" ry="4" style="stroke:#181818;stroke-width:1.0;"/><text fill="#000000" font-family="sans-serif" font-size="13" lengthAdjust="spacing" textLength="25" x="158" y="305.0669">Has</text></g><!--link Task to Like--><g id="link_Task_Like"><path codeLine="32" d="M250.25,262.38 C271.24,284.59 296.07,310.86 316.8,332.8 " fill="none" id="Task-to-Like" style="stroke:#181818;stroke-width:1.0;"/><line style="stroke:#181818;stroke-width:1.0;" x1="317.0424" x2="326.8988" y1="333.0483" y2="334.7368"/><line style="stroke:#181818;stroke-width:1.0;" x1="317.0424" x2="318.1812" y1="333.0483" y2="342.9832"/><line style="stroke:#181818;stroke-width:1.0;" x1="317.0424" x2="322.54" y1="333.0483" y2="338.86"/><ellipse cx="312.9192" cy="328.6894" fill="none" rx="4" ry="4" style="stroke:#181818;stroke-width:1.0;"/><text fill="#000000" font-family="sans-serif" font-size="13" lengthAdjust="spacing" textLength="25" x="293" y="305.0669">Has</text></g><!--SRC=[XP3D2i8m48JlUOerL-qBz2PLKImY4WyY8h5T9TYcqcozgE_kMcjhmPzJbftvXfrqOjmRYp2SgObQGPHevqIdMiwdsz5a60v0Ti74FXXBi9vFDx9sz9LQD1vDb9jTGIY5g0AN3dEu2AYpU7o32fQjJj47nwWzY5jDAksEFqWob3HOIuhHHRavaSdiXzmWIrFa8j-ZeymIEpwmeJdYdpRRwgCUL5dUywwNPnaVP92Z9dGzM9xYvp3017cGR-RNXUmFKP_ROdd2G-6N1L4cUrxMmiQQfKPvCUNw3W00]--></g></svg>